<svg version="1.2" xmlns="http://www.w3.org/2000/svg" viewBox="0 0 512 512" width="512" height="512">
	<title>next-svgrepo-com-svg</title>
	<style>
		.s0 { fill: #2e318b;stroke: #2e318b;stroke-width: .4 } 
	</style>
	<g id="SVGRepo_bgCarrier">
	</g>
	<g id="SVGRepo_tracerCarrier">
	</g>
	<g id="SVGRepo_iconCarrier">
		<g id="Layer">
			<g id="Layer">
				<path id="Layer" fill-rule="evenodd" class="s0" d="m512 256c0 141.4-114.6 256-256 256-141.4 0-256-114.6-256-256 0-141.4 114.6-256 256-256 141.4 0 256 114.6 256 256zm-25.6 0c0-127-103.4-230.4-230.4-230.4-127 0-230.4 103.4-230.4 230.4 0 127 103.4 230.4 230.4 230.4 127 0 230.4-103.4 230.4-230.4z"/>
			</g>
		</g>
		<g id="Layer">
			<g id="Layer">
				<path id="Layer" class="s0" d="m341.9 247l-128-128.1c-5-5-13.1-5-18.1 0-5 5-5 13.1 0 18.1l118.9 119-119 118.9c-5 5-5 13.1 0 18.1 2.5 2.6 5.8 3.8 9.1 3.8 3.3 0 6.6-1.2 9.1-3.7l128-128c5-5 5-13.1 0-18.1z"/>
			</g>
		</g>
	</g>
</svg>