<svg version="1.2" xmlns="http://www.w3.org/2000/svg" width="512" height="512"><style>.s0{fill:#2e318b;stroke:#2e318b;stroke-width:.4}</style><g id="SVGRepo_iconCarrier"><g id="Layer"><g id="Layer"><path id="Layer" fill-rule="evenodd" class="s0" d="M512 256c0 141.4-114.6 256-256 256S0 397.4 0 256 114.6 0 256 0s256 114.6 256 256zm-25.6 0C486.4 129 383 25.6 256 25.6S25.6 129 25.6 256 129 486.4 256 486.4 486.4 383 486.4 256z"/></g></g><g id="Layer"><g id="Layer"><path id="Layer" class="s0" d="m341.9 247-128-128.1c-5-5-13.1-5-18.1 0-5 5-5 13.1 0 18.1l118.9 119-119 118.9c-5 5-5 13.1 0 18.1 2.5 2.6 5.8 3.8 9.1 3.8s6.6-1.2 9.1-3.7l128-128c5-5 5-13.1 0-18.1z"/></g></g></g></svg>