<svg xmlns="http://www.w3.org/2000/svg" viewBox="0 0 256 256" width="48" height="48"><path d="M16.403 9H14V7c0-1.032.084-1.682 1.563-1.682h.868a1 1 0 0 0 1-1V3.064c0-.523-.401-.97-.923-1.005A26.154 26.154 0 0 0 14.693 2C11.98 2 10 3.657 10 6.699V9H8a1 1 0 0 0-1 1v2a1 1 0 0 0 1 1l2-.001V21a1 1 0 0 0 1 1h2a1 1 0 0 0 1-1v-8.003l2.174-.001a1 1 0 0 0 .993-.886l.229-1.996A1 1 0 0 0 16.403 9z" transform="scale(10.66667)" fill="#fff" stroke-miterlimit="10" font-family="none" font-weight="none" font-size="none" text-anchor="none" style="mix-blend-mode:normal"/></svg>