<svg version="1.2" xmlns="http://www.w3.org/2000/svg" width="176" height="95"><defs><clipPath clipPathUnits="userSpaceOnUse" id="cp12"><path d="M79.69 44.13c.73-3.08 6.13-9.32 6.13-9.32s2.42-16.08 12.52-20.05c-14.45 3.87-18.65 29.37-18.65 29.37z"/></clipPath><clipPath clipPathUnits="userSpaceOnUse" id="cp1"><path d="M104.99 29.49s19.08 1.86 20.3 24.13c30.52-17.81 28.95-35.38 28.95-35.38s-.82 2.98-3.13 6.24c-5.77 9.38-26.15 15.9-26.15 15.9s-2.45 1.09-2.47.3c1.28-2.35 32.27-27.22 32.19-40.08-1.94 11.44-40.45 30.67-42.24 30.51 2.05-24.57 14.21-28.89 14.21-28.89-16.21 4.6-21.66 27.27-21.66 27.27z"/></clipPath><clipPath clipPathUnits="userSpaceOnUse" id="cp22"><path d="M104.99 29.49s19.08 1.86 20.3 24.13c30.52-17.81 28.95-35.38 28.95-35.38s-.82 2.98-3.13 6.24c-5.77 9.38-26.15 15.9-26.15 15.9s-2.45 1.09-2.47.3c1.28-2.35 32.27-27.22 32.19-40.08-1.94 11.44-40.45 30.67-42.24 30.51 2.05-24.57 14.21-28.89 14.21-28.89-16.21 4.6-21.66 27.27-21.66 27.27z"/></clipPath><clipPath clipPathUnits="userSpaceOnUse" id="cp21"><path d="M80.15 51.54v.03c.48-.27 3.62-2.07 7.62-2.69 6.34-1.09 10.91 6.65 20.47 6.8 11.78-.47 13.17-8.93 13.3-9.98v-.06q-.01 0 0-.02t0-.01c-1.18 2.01-5.4 7.13-20.64-.5-3.17-1.23-6-1.52-8.48-1.25-7.61.84-11.83 7.02-12.27 7.68z"/></clipPath><clipPath clipPathUnits="userSpaceOnUse" id="cp3"><path d="M104.99 29.49s19.08 1.86 20.3 24.13c30.52-17.81 28.95-35.38 28.95-35.38s-.82 2.98-3.13 6.24c-5.77 9.38-26.15 15.9-26.15 15.9s-2.45 1.09-2.47.3c1.28-2.35 32.27-27.22 32.19-40.08-1.94 11.44-40.45 30.67-42.24 30.51 2.05-24.57 14.21-28.89 14.21-28.89-16.21 4.6-21.66 27.27-21.66 27.27z"/></clipPath><clipPath clipPathUnits="userSpaceOnUse" id="cp4"><path d="M80.15 51.57c.57-.87 7.86-11.42 20.8-6.42 15.24 7.63 19.41 2.5 20.6.49-.83-7.14-11.08-14.7-20.63-14.49q-.96.02-1.89.12c-10.41 1.15-18.48 9.78-18.88 20.3z"/></clipPath><clipPath clipPathUnits="userSpaceOnUse" id="cp5"><path d="M80.15 51.57c.57-.87 7.86-11.42 20.8-6.42 15.24 7.63 19.41 2.5 20.6.49-.83-7.14-11.08-14.7-20.63-14.49q-.96.02-1.89.12c-10.41 1.15-18.48 9.78-18.88 20.3z"/></clipPath><clipPath clipPathUnits="userSpaceOnUse" id="cp20"><path d="M80.15 51.54v.03c.48-.27 3.62-2.07 7.62-2.69 6.34-1.09 10.91 6.65 20.47 6.8 11.78-.47 13.17-8.93 13.3-9.98v-.06q-.01 0 0-.02t0-.01c-1.18 2.01-5.4 7.13-20.64-.5-3.17-1.23-6-1.52-8.48-1.25-7.61.84-11.83 7.02-12.27 7.68z"/></clipPath><clipPath clipPathUnits="userSpaceOnUse" id="cp6"><path d="M80.15 51.57c.57-.87 7.86-11.42 20.8-6.42 15.24 7.63 19.41 2.5 20.6.49-.83-7.14-11.08-14.7-20.63-14.49q-.96.02-1.89.12c-10.41 1.15-18.48 9.78-18.88 20.3z"/></clipPath><clipPath clipPathUnits="userSpaceOnUse" id="cp7"><path d="M80.15 51.54v.03c.48-.27 3.62-2.07 7.62-2.69 6.34-1.09 10.91 6.65 20.47 6.8 11.78-.47 13.17-8.93 13.3-9.98v-.06q-.01 0 0-.02t0-.01c-1.18 2.01-5.4 7.13-20.64-.5-3.17-1.23-6-1.52-8.48-1.25-7.61.84-11.83 7.02-12.27 7.68z"/></clipPath><clipPath clipPathUnits="userSpaceOnUse" id="cp8"><path d="M80.15 51.54v.03c.48-.27 3.62-2.07 7.62-2.69 6.34-1.09 10.91 6.65 20.47 6.8 11.78-.47 13.17-8.93 13.3-9.98v-.06q-.01 0 0-.02t0-.01c-1.18 2.01-5.4 7.13-20.64-.5-3.17-1.23-6-1.52-8.48-1.25-7.61.84-11.83 7.02-12.27 7.68z"/></clipPath><clipPath clipPathUnits="userSpaceOnUse" id="cp19"><path d="M80.15 51.54v.03c.48-.27 3.62-2.07 7.62-2.69 6.34-1.09 10.91 6.65 20.47 6.8 11.78-.47 13.17-8.93 13.3-9.98v-.06q-.01 0 0-.02t0-.01c-1.18 2.01-5.4 7.13-20.64-.5-3.17-1.23-6-1.52-8.48-1.25-7.61.84-11.83 7.02-12.27 7.68z"/></clipPath><clipPath clipPathUnits="userSpaceOnUse" id="cp18"><path d="M80.15 51.57c.57-.87 7.86-11.42 20.8-6.42 15.24 7.63 19.41 2.5 20.6.49-.83-7.14-11.08-14.7-20.63-14.49q-.96.02-1.89.12c-10.41 1.15-18.48 9.78-18.88 20.3z"/></clipPath><clipPath clipPathUnits="userSpaceOnUse" id="cp9"><path d="M80.15 51.54v.03c.48-.27 3.62-2.07 7.62-2.69 6.34-1.09 10.91 6.65 20.47 6.8 11.78-.47 13.17-8.93 13.3-9.98v-.06q-.01 0 0-.02t0-.01c-1.18 2.01-5.4 7.13-20.64-.5-3.17-1.23-6-1.52-8.48-1.25-7.61.84-11.83 7.02-12.27 7.68z"/></clipPath><clipPath clipPathUnits="userSpaceOnUse" id="cp10"><path d="M79.69 44.13c.73-3.08 6.13-9.32 6.13-9.32s2.42-16.08 12.52-20.05c-14.45 3.87-18.65 29.37-18.65 29.37z"/></clipPath><clipPath clipPathUnits="userSpaceOnUse" id="cp11"><path d="M79.69 44.13c.73-3.08 6.13-9.32 6.13-9.32s2.42-16.08 12.52-20.05c-14.45 3.87-18.65 29.37-18.65 29.37z"/></clipPath><clipPath clipPathUnits="userSpaceOnUse" id="cp17"><path d="M80.15 51.57c.57-.87 7.86-11.42 20.8-6.42 15.24 7.63 19.41 2.5 20.6.49-.83-7.14-11.08-14.7-20.63-14.49q-.96.02-1.89.12c-10.41 1.15-18.48 9.78-18.88 20.3z"/></clipPath><clipPath clipPathUnits="userSpaceOnUse" id="cp16"><path d="M80.15 51.57c.57-.87 7.86-11.42 20.8-6.42 15.24 7.63 19.41 2.5 20.6.49-.83-7.14-11.08-14.7-20.63-14.49q-.96.02-1.89.12c-10.41 1.15-18.48 9.78-18.88 20.3z"/></clipPath><clipPath clipPathUnits="userSpaceOnUse" id="cp2"><path d="M104.99 29.49s19.08 1.86 20.3 24.13c30.52-17.81 28.95-35.38 28.95-35.38s-.82 2.98-3.13 6.24c-5.77 9.38-26.15 15.9-26.15 15.9s-2.45 1.09-2.47.3c1.28-2.35 32.27-27.22 32.19-40.08-1.94 11.44-40.45 30.67-42.24 30.51 2.05-24.57 14.21-28.89 14.21-28.89-16.21 4.6-21.66 27.27-21.66 27.27z"/></clipPath><clipPath clipPathUnits="userSpaceOnUse" id="cp13"><path d="M93.15 30.83c4.23-1.38 8.08-1.56 8.08-1.56s1.8-17.24 12.5-20.94c-15.71 5.29-20.58 22.5-20.58 22.5z"/></clipPath><clipPath clipPathUnits="userSpaceOnUse" id="cp14"><path d="M93.15 30.83c4.23-1.38 8.08-1.56 8.08-1.56s1.8-17.24 12.5-20.94c-15.71 5.29-20.58 22.5-20.58 22.5z"/></clipPath><clipPath clipPathUnits="userSpaceOnUse" id="cp15"><path d="M93.15 30.83c4.23-1.38 8.08-1.56 8.08-1.56s1.8-17.24 12.5-20.94c-15.71 5.29-20.58 22.5-20.58 22.5z"/></clipPath><linearGradient id="g3" x2="1" gradientUnits="userSpaceOnUse" gradientTransform="matrix(41.548 -4.585 2.552 23.125 78.16 33.575)"><stop offset="0" stop-color="#b68500"/><stop offset=".205" stop-color="#8a6703"/><stop offset=".627" stop-color="#eeb667"/><stop offset="1" stop-color="#8a6703"/></linearGradient><linearGradient id="g9" x2="1" gradientUnits="userSpaceOnUse" gradientTransform="matrix(22.782 -2.514 2.205 19.982 90.949 10.849)"><stop offset="0" stop-color="#b68500"/><stop offset=".205" stop-color="#8a6703"/><stop offset=".627" stop-color="#eeb667"/><stop offset="1" stop-color="#8a6703"/></linearGradient><linearGradient id="g7" x2="1" gradientUnits="userSpaceOnUse" gradientTransform="matrix(21.63 -2.387 2.979 26.99 76.712 17.144)"><stop offset="0" stop-color="#b68500"/><stop offset=".205" stop-color="#8a6703"/><stop offset=".627" stop-color="#eeb667"/><stop offset="1" stop-color="#8a6703"/></linearGradient><linearGradient id="g6" x2="1" gradientUnits="userSpaceOnUse" gradientTransform="matrix(43.221 -4.77 4.888 44.292 64.963 9.684)"><stop offset="0" stop-color="#b68500"/><stop offset=".205" stop-color="#8a6703"/><stop offset=".627" stop-color="#eeb667"/><stop offset="1" stop-color="#8a6703"/></linearGradient><linearGradient id="g10" x2="1" gradientUnits="userSpaceOnUse" gradientTransform="matrix(41.548 -4.585 2.552 23.125 78.16 33.575)"><stop offset="0" stop-color="#b68500"/><stop offset=".205" stop-color="#8a6703"/><stop offset=".627" stop-color="#eeb667"/><stop offset="1" stop-color="#8a6703"/></linearGradient><linearGradient id="g5" x2="1" gradientUnits="userSpaceOnUse" gradientTransform="matrix(2.616 29.591 -93.646 8.279 102.38 39.1)"><stop offset="0" stop-color="#b68500"/><stop offset=".205" stop-color="#8a6703"/><stop offset=".627" stop-color="#eeb667"/><stop offset="1" stop-color="#8a6703"/></linearGradient><linearGradient id="g4" x2="1" gradientUnits="userSpaceOnUse" gradientTransform="matrix(2.391 27.039 -74.853 6.618 102.731 39.973)"><stop offset="0" stop-color="#b68500"/><stop offset=".205" stop-color="#8a6703"/><stop offset=".627" stop-color="#eeb667"/><stop offset="1" stop-color="#8a6703"/></linearGradient><linearGradient id="g8" x2="1" gradientUnits="userSpaceOnUse" gradientTransform="matrix(38.767 -4.278 4.217 38.209 81.952 2.617)"><stop offset="0" stop-color="#b68500"/><stop offset=".205" stop-color="#8a6703"/><stop offset=".627" stop-color="#eeb667"/><stop offset="1" stop-color="#8a6703"/></linearGradient><linearGradient id="g11" x2="1" gradientUnits="userSpaceOnUse" gradientTransform="matrix(2.391 27.039 -74.853 6.618 102.731 39.973)"><stop offset="0" stop-color="#b68500"/><stop offset=".205" stop-color="#8a6703"/><stop offset=".627" stop-color="#eeb667"/><stop offset="1" stop-color="#8a6703"/></linearGradient><linearGradient id="g12" x2="1" gradientUnits="userSpaceOnUse" gradientTransform="matrix(2.616 29.591 -93.646 8.279 102.38 39.1)"><stop offset="0" stop-color="#b68500"/><stop offset=".205" stop-color="#8a6703"/><stop offset=".627" stop-color="#eeb667"/><stop offset="1" stop-color="#8a6703"/></linearGradient><linearGradient id="g2" x2="1" gradientUnits="userSpaceOnUse" gradientTransform="matrix(52.245 -5.766 5.588 50.635 102.279 4.911)"><stop offset="0" stop-color="#b68500"/><stop offset=".205" stop-color="#8a6703"/><stop offset=".627" stop-color="#eeb667"/><stop offset="1" stop-color="#8a6703"/></linearGradient><linearGradient id="g1" x2="1" gradientUnits="userSpaceOnUse" gradientTransform="matrix(92.752 -10.236 10.201 92.433 79.72 -13.753)"><stop offset="0" stop-color="#b68500"/><stop offset=".205" stop-color="#8a6703"/><stop offset=".627" stop-color="#eeb667"/><stop offset="1" stop-color="#8a6703"/></linearGradient><linearGradient id="g13" x2="1" gradientUnits="userSpaceOnUse" gradientTransform="matrix(-50.12 44.281 -44.421 -50.279 200.775 49.477)"><stop offset=".565" stop-color="#fff"/><stop offset=".948" stop-color="#180100"/></linearGradient><linearGradient id="g14" x2="1" gradientUnits="userSpaceOnUse" gradientTransform="matrix(-47.327 41.813 -30.483 -34.502 175.525 38.251)"><stop offset=".565" stop-color="#fff"/><stop offset=".948" stop-color="#180100"/></linearGradient></defs><style>.s0{fill:#2e318b}</style><g id="&lt;Group&gt;"><g id="&lt;Group&gt;"><path id="&lt;Compound Path&gt;" class="s0" d="M56.7 67.4c0 2.6-2.2 5.1-5.4 5.6-1.7.2-3.1.2-4.5-.1-.8-.1-.6-.6.1-.6 4.1.2 7.5-1.7 7.5-4.9 0-3.1-2.1-4.4-4.9-4.4h-2.1c-2.2 0-2.3 1-2.3 3.4v13c0 1.1.9 1.4 1.5 1.5.5 0 .6.1.6.2 0 .2-.3.2-.5.2-.7 0-2.3-.1-3-.1-.8 0-1.7.1-2.2.1-.3 0-.5 0-.5-.2 0-.1 0-.2.6-.3.5 0 1.4-.3 1.4-1.4v-15c0-1-.7-1.4-1.2-1.4-5.8-.8-8.1 5.8-5.2 9.5.1.1 0 .3-.1.1-3.4-3-1.6-10.6 4.8-10.6 0 0 3.2.1 3.5.1.3 0 4.7-.1 4.7-.1 3.2 0 7.2 1.2 7.2 5.4zM76.1 81.1c0 .2-.1.2-.3.2h-1.2c-1 0-3.3 0-4.7-1.8-1.5-1.8-3.7-5.1-6.6-6.7-.4-.2-.3-.5.4-.5 4.1.2 6.8-1.7 6.8-4.9 0-3.1-2.1-4.4-4.9-4.4h-1.4c-2.3 0-2.3 1-2.3 3.4v13c0 1.1.9 1.4 1.4 1.5h.4c.2 0 .2.1.2.2 0 .2-.2.2-.5.2-.6 0-2.2-.1-2.9-.1-.8 0-1.7.1-2.2.1-.3 0-.5 0-.5-.2 0-.1 0-.2.2-.2h.4c.5-.1 1.4-.4 1.4-1.5V63.9c0-1.1-.9-1.4-1.4-1.4H58c-.2 0-.2-.2-.2-.3 0-.2.2-.2.5-.2.8.1 2.9.1 3.2.1.4 0 4.2-.1 4.2-.1 3.1 0 7.1 1.2 7.1 5.4 0 2.6-1.6 5.1-4.7 5.6-.6.1-1.2.1-1.8.2 2.3 1.3 5.2 4.8 6.7 6.5.4.5 1.3 1 2.5 1.2h.4c.2 0 .2.1.2.2z"/><path id="&lt;Compound Path&gt;" fill-rule="evenodd" class="s0" d="M86.7 81.8c-6 0-10.9-4.1-10.9-10.1s4.9-10.1 10.9-10.1 10.8 4.1 10.8 10.1-4.8 10.1-10.8 10.1zm0-19.3c-4.8 0-8.5 3.7-8.5 9.2 0 5.4 3.7 9.1 8.5 9.1 4.7 0 8.4-3.7 8.4-9.1 0-5.5-3.7-9.2-8.4-9.2zM106.7 81.3s-3.4-.1-3.6-.1c-.4 0-2.5.1-3.3.1-.3 0-.5 0-.5-.2 0-.1.1-.2.3-.2h.3c.6-.1 1.5-.4 1.5-1.5V63.9c0-1.1-.9-1.4-1.5-1.4h-.3c-.2 0-.3-.2-.3-.3 0-.2.2-.2.5-.2.8.1 2.9.1 3.3.1.2 0 3.5-.1 3.5-.1 5.8.1 10.3 4 10.3 9.7 0 5.7-4.5 9.6-10.2 9.6zm8-9.6c0-5.2-3.6-8.7-8.1-8.7h-1c-2.1.2-2.2 1-2.2 3.4V77c0 2.4.1 3.2 2.4 3.4h.9c4.4 0 8-3.6 8-8.7z"/><path id="&lt;Compound Path&gt;" class="s0" d="M124.9 81.1c0 .2-.2.2-.5.2-.6 0-2.2-.1-2.9-.1-.8 0-1.7.1-2.2.1-.3 0-.5 0-.5-.2 0-.1 0-.2.2-.2h.4c.5-.1 1.4-.4 1.4-1.5V63.9c0-1.1-.9-1.4-1.4-1.4h-.4c-.2 0-.2-.2-.2-.3 0-.2.2-.2.5-.2.5 0 1.4.1 2.2.1.7 0 2.3-.1 2.9-.1.3 0 .5 0 .5.2 0 .1 0 .2-.2.2l-.4.1c-.5 0-1.4.3-1.4 1.4v15.5c0 1.1.9 1.4 1.4 1.5h.4c.2 0 .2.1.2.2zM145.1 72.8l-.3.1c-.6 0-1.5.4-1.5 1.4v2.9c0 1.9-.2 3.5-1.2 4-1 .4-3 .6-4.7.6-6 0-10.7-4.1-10.7-10.1 0-5.9 4.7-10.1 10.5-10.1.8 0 1.9 0 2.8.2.9.2 1.8.3 2.6.4.3 0 .3.1.3.3 0 .2 0 .5-.1 1.4 0 .9 0 2.3-.1 2.7 0 .4 0 .5-.2.5s-.2-.1-.2-.5c0-1-.5-2-1.1-2.6-.6-.8-2.5-1.5-4-1.5-4.5.1-8.1 3.9-8.1 9.2 0 5.4 3.6 9.1 8.3 9.1 1.1 0 2.1 0 2.9-.4.1 0 1-.7 1-2.2v-3.9c0-1-.9-1.4-1.5-1.4h-.3c-.2 0-.3-.1-.3-.3 0-.2.2-.2.5-.2.5.1 1.5.1 2.2.1.7 0 2.3 0 3-.1.3 0 .5 0 .5.2s-.1.2-.3.2zM152.3 81.1c0 .2-.2.2-.5.2-.7 0-2.3-.1-3-.1-.7 0-1.7.1-2.2.1-.3 0-.5 0-.5-.2 0-.1.1-.2.3-.2h.3c.6-.1 1.5-.4 1.5-1.5V63.9c0-1.1-.9-1.4-1.5-1.4h-.3c-.2 0-.3-.2-.3-.3 0-.2.2-.2.5-.2.5 0 1.5.1 2.2.1.7 0 2.3-.1 3-.1.3 0 .5 0 .5.2 0 .1-.1.2-.3.2l-.3.1c-.6 0-1.5.3-1.5 1.4v15.5c0 1.1.9 1.4 1.5 1.5h.3c.2 0 .3.1.3.2z"/><path id="&lt;Compound Path&gt;" fill-rule="evenodd" class="s0" d="M165 81.8c-6.1 0-10.9-4.1-10.9-10.1s4.8-10.1 10.9-10.1c6 0 10.8 4.1 10.8 10.1S171 81.8 165 81.8zm0-19.3c-4.8 0-8.5 3.7-8.5 9.2 0 5.4 3.7 9.1 8.5 9.1 4.7 0 8.4-3.7 8.4-9.1 0-5.5-3.7-9.2-8.4-9.2z"/><path id="&lt;Compound Path&gt;" class="s0" d="M33.1 60.4c-2.9 2.8-8.2 4-14.5-3.4-2.8-3.3-8.4-10.7-11.1-14.1-.4-.6-.9-1-1.3-1.5v13.3c0 1.1.9 1.4 1.5 1.4.5 0 .6.2.6.3 0 .2-.2.2-.5.2-.7-.1-2-.1-2.7-.1-.7 0-1.7 0-2.2.1-.3 0-.5 0-.5-.2 0-.1.1-.3.6-.3.6 0 1.5-.3 1.5-1.5V40c-1.6-1.1-3-1-4.1-.3-.3.1-.4 0-.2-.2 2.2-3 5.8-2.2 9 2.3L19 54.7V39.2c0-1.1-.9-1.4-1.5-1.5h-.3c-.2 0-.3-.1-.3-.2 0-.2.2-.2.5-.2.5 0 1.5.1 2.2.1.7 0 2-.1 2.7-.1.2-.1.5 0 .5.2 0 .1-.1.2-.3.2h-.3c-.6.1-1.5.4-1.5 1.5v17.5c4.5 4.6 8.5 6.4 12.3 3.5.1-.2.4-.1.1.2z"/><path id="&lt;Compound Path&gt;" class="s0" d="M30.4 56.4c0 .2-.2.2-.5.2-.7-.1-2.3-.1-3-.1-.7 0-1.7 0-2.2.1-.3 0-.5 0-.5-.2 0-.1.1-.3.3-.3h.3c.6 0 1.5-.3 1.5-1.4V39.2c0-1.1-.9-1.4-1.5-1.5h-.3c-.2 0-.3-.1-.3-.2 0-.2.2-.2.5-.2.5 0 1.5.1 2.2.1.7 0 2.3-.1 3-.1.3 0 .5 0 .5.2 0 .1-.1.2-.3.2h-.3c-.6.1-1.5.4-1.5 1.5v15.5c0 1.1.9 1.4 1.5 1.4h.3c.2 0 .3.2.3.3zM52.2 56.4c0 .1-.1.2-.3.2h-1.3c-.9 0-2.5.2-4.5-1.8l-10.5-12v11.9c0 1.1.9 1.4 1.5 1.4h.3c.2 0 .3.2.3.3 0 .2-.2.2-.5.2-.7-.1-2-.1-2.7-.1-.7 0-1.7 0-2.2.1-.3 0-.5 0-.5-.2 0-.1.1-.3.3-.3h.3c.6 0 1.5-.3 1.5-1.4V40.3c0-1.8-.2-2.8-.2-2.8-.1-.5.3-.7.6-.1 0 0 10.4 13.5 14.1 17.2V39.2c0-1.1-.9-1.4-1.5-1.5h-.3c-.2 0-.3-.1-.3-.2 0-.2.2-.2.5-.2.5 0 1.5.1 2.2.1.7 0 2-.1 2.7-.1.3 0 .5 0 .5.2 0 .1-.1.2-.3.2h-.3c-.6.1-1.5.4-1.5 1.5v15.5c0 .8.7 1.4 1.8 1.4.2 0 .3.2.3.3zm-7-22.7c-.2 1.5-.8 2.3-1.9 2.3-1 0-2.2-1.5-2.9-1.5-.4 0-1 .4-1.3 1.2h-.3q.3-2.4 1.8-2.4c1.1 0 2.2 1.4 2.9 1.4.5 0 1.1-.3 1.3-1z"/><path id="&lt;Compound Path&gt;" fill-rule="evenodd" class="s0" d="M64.8 57.1c-6 0-10.8-4.2-10.8-10.2 0-5.9 4.8-10.1 10.8-10.1 6.1 0 10.9 4.2 10.9 10.1 0 6-4.8 10.2-10.9 10.2zm0-19.3c-4.7 0-8.4 3.7-8.4 9.1 0 5.5 3.7 9.2 8.4 9.2 4.8 0 8.5-3.7 8.5-9.2 0-5.4-3.7-9.1-8.5-9.1z"/><g id="&lt;Group&gt;"><path id="&lt;Compound Path&gt;" class="s0" d="M5.5 94.7q-.3 0-.5-.1-.3-.1-.5-.3-.2-.2-.3-.5l.4-.2.2.4q.1.1.3.2.2.1.4.1t.4-.1q.2-.1.3-.2.1-.1.1-.2.1-.1.1-.2.1-.1.1-.3 0-.4-.3-.7-.2-.2-.4-.3-.2-.2-.4-.3-.2-.1-.5-.3-.2-.1-.4-.3-.4-.5-.4-1 0-.3.1-.6t.3-.4q.2-.2.5-.3.2-.2.5-.2t.6.2q.2.1.4.3l.2.2q0 .1.1.2l-.4.2q-.1-.2-.2-.3-.1-.2-.3-.2-.2-.1-.4-.1t-.4.1q-.2 0-.3.2-.1 0-.1.1-.1.1-.1.2t-.1.2v.2q0 .4.3.7.2.1.4.3l.4.2q.2.2.5.3l.4.4q.4.4.4 1 0 .2-.1.5-.1.2-.1.3l-.2.2q-.2.2-.4.3-.3.1-.6.1z"/><path id="&lt;Compound Path&gt;" fill-rule="evenodd" class="s0" d="M12 94.7h-.5v-5.8h1.2q.3 0 .6.2.2.1.4.3.2.2.3.4.1.3.1.6t-.1.5q-.1.3-.3.5-.2.2-.4.3-.3.1-.6.1H12zm0-3.3h.7q.2 0 .4-.1t.3-.2q.1-.1.2-.3.1-.2.1-.4t-.1-.4q-.1-.2-.2-.3-.1-.2-.3-.2-.2-.1-.4-.1H12z"/><path id="&lt;Compound Path&gt;" class="s0" d="M18.7 94.7v-5.8h.5v5.8z"/><path id="&lt;Compound Path&gt;" fill-rule="evenodd" class="s0" d="M26.4 94.2h.1v.5q-.2 0-.3-.1-.2-.2-.2-.4V93q0-.2-.1-.4l-.2-.4q-.2-.2-.4-.3-.2-.1-.4-.1h-.7v2.9h-.4v-5.8H25q.3 0 .5.2.3.1.5.3.1.2.3.4.1.3.1.6 0 .4-.2.7-.2.3-.5.5.3.2.5.6.2.4.2.8zm-2.2-2.8H25.4l.3-.3q.1-.1.2-.3.1-.2.1-.4t-.1-.4q-.1-.1-.2-.3-.2-.1-.3-.2-.2-.1-.4-.1h-.8z"/><path id="&lt;Compound Path&gt;" class="s0" d="M31.2 94.7v-5.8h.4v5.8zM38.3 89.4h-.9v5.3H37v-5.3h-.8v-.5h2.1zM44.3 94.7q-.3 0-.5-.1-.3-.2-.5-.4t-.3-.4q-.1-.3-.1-.6v-4.3h.4v4.3q0 .2.1.4t.2.3q.1.2.3.3.2.1.4.1.3 0 .4-.1.2-.1.4-.3.1-.1.2-.3.1-.2.1-.4v-4.3h.4v4.3q0 .3-.1.6-.1.2-.3.4-.2.2-.5.4-.3.1-.6.1z"/><path id="&lt;Compound Path&gt;" fill-rule="evenodd" class="s0" d="M50.9 94.7h-.5l1-5.8h.7l1 5.8h-.4l-.3-1.7h-1.2zm.9-5.2-.6 3h1.1z"/><path id="&lt;Compound Path&gt;" class="s0" d="M59.2 94.7h-1.5v-5.8h.4v5.4h1.1zM63.8 94.7v-5.8h.4v5.8zM70.3 94.7q-.3 0-.6-.1-.2-.1-.4-.3-.2-.2-.3-.5l.4-.2q0 .2.2.4.1.1.3.2.2.1.4.1t.3-.1l.4-.2q0-.1.1-.2 0-.1.1-.2v-.3q0-.4-.3-.7-.1-.2-.3-.3-.2-.2-.4-.3-.3-.1-.5-.3-.2-.1-.4-.3-.4-.5-.4-1 0-.3.1-.6t.3-.4q.2-.2.4-.3.3-.2.6-.2.2 0 .5.2.3.1.5.3.1.1.1.2l.2.2-.4.2q-.1-.2-.2-.3-.2-.2-.4-.2-.1-.1-.3-.1-.2 0-.4.1-.2 0-.3.2-.1 0-.1.1-.1.1-.1.2-.1.1-.1.2v.2q0 .4.3.7.2.1.3.3.2.1.5.2.2.2.4.3.3.2.4.4.5.4.5 1 0 .2-.1.5-.1.2-.2.3 0 .1-.1.2-.2.2-.5.3-.3.1-.5.1zM79.5 94.7V90l-1.1 4.7h-.6L76.7 90v4.7h-.4v-5.8h.6l1.2 5.2 1.2-5.2h.6v5.8z"/><path id="&lt;Compound Path&gt;" fill-rule="evenodd" class="s0" d="M90 94.7h-.4l1-5.8h.7l.9 5.8h-.4l-.3-1.7h-1.2zm.9-5.2-.5 3h1z"/><path id="&lt;Compound Path&gt;" class="s0" d="m99.3 94.7-2-4.7v4.7h-.4v-5.8h.4l2 4.7v-4.7h.4v5.8z"/><path id="&lt;Compound Path&gt;" fill-rule="evenodd" class="s0" d="M105.6 88.9q.3 0 .5.1.3.2.5.4.2.1.3.4.1.3.1.6v2.8q0 .3-.1.6t-.3.5q-.2.2-.5.3-.2.1-.5.1h-1.3v-5.8h.4zm1 1.5q0-.2-.1-.4 0-.2-.2-.3-.1-.2-.3-.3H104.8v4.9h.8q.2-.1.4-.1.2-.1.3-.2.2-.2.2-.4.1-.1.1-.4z"/><path id="&lt;Compound Path&gt;" class="s0" d="M119.9 94.7V90l-1.1 4.7h-.6l-1.1-4.7v4.7h-.4v-5.8h.6l1.2 5.2 1.2-5.2h.6v5.8zM127.7 88.9l-1.4 5.8h-.4l.4-1.7-.4-.2q-.1-.2-.2-.5l-.8-3.4h.4l.8 3.3q.1.3.3.4l.8-3.7zM133.7 94.7q-.3 0-.6-.1-.2-.1-.4-.3-.2-.2-.3-.5l.4-.2.2.4q.1.1.3.2.2.1.4.1t.4-.1q.1-.1.3-.2 0-.1.1-.2t.1-.2q.1-.1.1-.3 0-.4-.3-.7-.2-.2-.4-.3-.2-.2-.4-.3-.2-.1-.5-.3-.2-.1-.4-.3-.4-.5-.4-1 0-.3.1-.6t.3-.4q.2-.2.4-.3.3-.2.6-.2t.5.2q.3.1.5.3l.2.2q0 .1.1.2l-.4.2q-.1-.2-.2-.3-.1-.2-.3-.2-.2-.1-.4-.1t-.4.1q-.2 0-.3.2-.1 0-.1.1-.1.1-.1.2-.1.1-.1.2v.2q0 .4.3.7.2.1.4.3l.4.2q.2.2.5.3l.4.4q.4.4.4 1 0 .2-.1.5-.1.2-.1.3l-.2.2q-.2.2-.5.3-.2.1-.5.1zM141.8 89.4h-.8v5.3h-.5v-5.3h-.8v-.5h2.1zM146.4 94.7v-5.8h.4v5.8zM152.8 94.7q-.5 0-.9-.4-.5-.5-.5-1.1v-2.8q0-.6.5-1.1.4-.4.9-.4.3 0 .6.1.2.1.4.3l-.3.4q-.1-.2-.3-.3h-.4q-.4 0-.6.3-.2.1-.3.3V93.6q.1.2.3.4.2.3.6.3.2 0 .4-.1t.3-.2l.3.3q-.2.2-.4.3-.3.1-.6.1zM158.5 94.7v-5.8h.4v5.8zM164.9 94.7q-.3 0-.5-.1-.3-.1-.5-.3-.2-.2-.3-.5l.4-.2.2.4q.2.1.3.2.2.1.4.1t.4-.1q.2-.1.3-.2.1-.1.1-.2.1-.1.1-.2.1-.1.1-.3 0-.4-.3-.7-.2-.2-.4-.3-.2-.2-.4-.3-.2-.1-.4-.3-.3-.1-.5-.3-.4-.5-.4-1 0-.3.1-.6t.3-.4q.2-.2.5-.3.2-.2.5-.2t.6.2q.2.1.4.3l.2.2q.1.1.1.2l-.4.2q0-.2-.2-.3-.1-.2-.3-.2-.2-.1-.4-.1t-.4.1q-.1 0-.3.2l-.1.1q-.1.1-.1.2v.2q-.1.1-.1.2 0 .4.3.7.2.1.4.3l.4.2q.3.2.5.3l.4.4q.4.4.4 1 0 .2-.1.5 0 .2-.1.3l-.2.2q-.2.2-.4.3-.3.1-.6.1zM174.1 94.7V90l-1.1 4.7h-.6l-1-4.7v4.7h-.5v-5.8h.7l1.1 5.2 1.2-5.2h.6v5.8z"/></g></g><g id="&lt;Group&gt;"><g id="&lt;Group&gt;"><g id="&lt;Group&gt;"><g id="&lt;Clip Group&gt;" clip-path="url(#cp2)"><path id="&lt;Path&gt;" d="m86.5 47.7 23.9-64.8L175.9 7 152 71.8z" style="fill:url(#g1)"/><path id="&lt;Path&gt;" d="M105 29.5s19.1 1.9 20.3 24.1c30.5-17.8 28.9-35.4 28.9-35.4s-.8 3-3.1 6.3c-5.8 9.4-26.1 15.9-26.1 15.9s-2.5 1.1-2.5.3c1.3-2.4 32.3-27.2 32.2-40.1-2 11.4-40.5 30.7-42.3 30.5 2.1-24.6 14.3-28.9 14.3-28.9C110.4 6.8 105 29.5 105 29.5z" style="fill:url(#g2)"/></g></g><g id="&lt;Group&gt;"><g id="&lt;Clip Group&gt;" clip-path="url(#cp5)"><path id="&lt;Path&gt;" d="m78.2 33.6 41.5-4.6 2.6 23.1-41.6 4.6z" style="fill:url(#g3)"/></g></g><g id="&lt;Group&gt;"><g id="&lt;Clip Group&gt;" clip-path="url(#cp8)"><path id="&lt;Path&gt;" d="M122.6 54.9 81 59.5l-1.5-14.2 41.5-4.6z" style="fill:url(#g4)"/><path id="&lt;Path&gt;" d="m80.2 51.5-.1.1c.5-.3 3.7-2.1 7.7-2.7 6.3-1.1 10.9 6.6 20.4 6.8 11.8-.5 13.2-8.9 13.3-10v-.1c-1.1 2-5.4 7.1-20.6-.5-3.2-1.2-6-1.5-8.5-1.2-7.6.8-11.8 7-12.2 7.6z" style="fill:url(#g5)"/></g></g><g id="&lt;Group&gt;"><g id="&lt;Clip Group&gt;" clip-path="url(#cp11)"><path id="&lt;Path&gt;" d="M68.3 39.9 80.1 8l29.6 11L98 50.9z" style="fill:url(#g6)"/><path id="&lt;Path&gt;" d="M79.7 44.1c.7-3 6.1-9.3 6.1-9.3s2.4-16.1 12.5-20c-14.4 3.8-18.6 29.3-18.6 29.3z" style="fill:url(#g7)"/></g></g><g id="&lt;Group&gt;"><g id="&lt;Clip Group&gt;" clip-path="url(#cp14)"><path id="&lt;Path&gt;" d="m84.7 27.7 9.8-26.5 27.7 10.2-9.8 26.5z" style="fill:url(#g8)"/><path id="&lt;Path&gt;" d="M93.2 30.8c4.2-1.3 8-1.5 8-1.5s1.8-17.3 12.5-21C98 13.6 93.2 30.8 93.2 30.8z" style="fill:url(#g9)"/></g></g><g id="&lt;Group&gt;"><g id="&lt;Clip Group&gt;" clip-path="url(#cp17)"><path id="&lt;Path&gt;" d="m78.2 33.6 41.5-4.6 2.6 23.1-41.6 4.6z" style="fill:url(#g10)"/></g></g><g id="&lt;Group&gt;"><g id="&lt;Clip Group&gt;" clip-path="url(#cp20)"><path id="&lt;Path&gt;" d="M122.6 54.9 81 59.5l-1.5-14.2 41.5-4.6z" style="fill:url(#g11)"/><path id="&lt;Path&gt;" d="m80.2 51.5-.1.1c.5-.3 3.7-2.1 7.7-2.7 6.3-1.1 10.9 6.6 20.4 6.8 11.8-.5 13.2-8.9 13.3-10v-.1c-1.1 2-5.4 7.1-20.6-.5-3.2-1.2-6-1.5-8.5-1.2-7.6.8-11.8 7-12.2 7.6z" style="fill:url(#g12)"/></g></g></g><g id="&lt;Clip Group&gt;" clip-path="url(#cp22)" style="opacity:.7;mix-blend-mode:multiply"><path id="&lt;Path&gt;" d="m86.5 47.7 23.9-64.8L175.9 7 152 71.8z" style="fill:url(#g13)"/><path id="&lt;Path&gt;" d="M105 29.5s19.1 1.9 20.3 24.1c30.5-17.8 28.9-35.4 28.9-35.4s-.8 3-3.1 6.3c-5.8 9.4-26.1 15.9-26.1 15.9s-2.5 1.1-2.5.3c1.3-2.4 32.3-27.2 32.2-40.1-2 11.4-40.5 30.7-42.3 30.5 2.1-24.6 14.3-28.9 14.3-28.9C110.4 6.8 105 29.5 105 29.5z" style="fill:url(#g14)"/></g></g></g></svg>