<svg fill="#2e318b" height="188" width="188" xmlns="http://www.w3.org/2000/svg" viewBox="0 0 512 512" xml:space="preserve" stroke="#2e318b" stroke-width=".005"><path d="M256 0C114.62 0 0 114.62 0 256s114.62 256 256 256 256-114.62 256-256S397.38 0 256 0zm0 486.4C128.956 486.4 25.6 383.044 25.6 256S128.956 25.6 256 25.6 486.4 128.956 486.4 256 383.044 486.4 256 486.4z"/><path d="m341.854 246.955-128-128.009c-5.001-5.001-13.099-5.001-18.099 0-5.001 5-5.001 13.099 0 18.099L314.701 256 195.746 374.946c-5.001 5-5.001 13.099 0 18.099a12.732 12.732 0 0 0 9.054 3.755 12.76 12.76 0 0 0 9.054-3.746l128-128c5-5.001 5-13.099 0-18.099z"/></svg>