<svg version="1.2" xmlns="http://www.w3.org/2000/svg" viewBox="0 0 24 24" width="64" height="64"><path d="M21.4 17.8q.3.3.5.8.1.5.1 1-.1.5-.4.9-.3.4-.7.6-.7.3-1.3.6-.7.2-1.4.3h-1.4l-1.4-.2C10.5 20.5 3.5 13.5 2.2 8.6L2 7.2V5.8q.1-.7.3-1.4.3-.6.6-1.3.2-.4.6-.7.4-.3.9-.4.5 0 1 .1.5.2.8.5l2.1 2.1q.3.2.4.5.2.3.2.6.1.3 0 .6 0 .3-.1.6-.1.2-.2.3-.1.2-.2.3-.1.2-.2.3-.1.2-.2.3c-2.4 2.4 5.4 10.2 7.8 7.8q.1-.1.3-.2.1-.1.3-.2.1-.1.3-.2.1-.1.3-.2.3-.1.6-.1.3-.1.6 0 .3 0 .6.2.3.1.5.4z" style="fill:#fff"/></svg>