<svg version="1.2" xmlns="http://www.w3.org/2000/svg" viewBox="0 0 24 24" width="64" height="64">
	<title>phone-svgrepo-com-svg</title>
	<style>
		.s0 { fill: #ffffff } 
	</style>
	<path id="Layer" class="s0" d="m21.4 17.8q0.3 0.3 0.5 0.8 0.1 0.5 0.1 1-0.1 0.5-0.4 0.9-0.3 0.4-0.7 0.6-0.7 0.3-1.3 0.6-0.7 0.2-1.4 0.3-0.7 0-1.4 0-0.7-0.1-1.4-0.2c-4.9-1.3-11.9-8.3-13.2-13.2q-0.1-0.7-0.2-1.4 0-0.7 0-1.4 0.1-0.7 0.3-1.4 0.3-0.6 0.6-1.3 0.2-0.4 0.6-0.7 0.4-0.3 0.9-0.4 0.5 0 1 0.1 0.5 0.2 0.8 0.5l2.1 2.1q0.3 0.2 0.4 0.5 0.2 0.3 0.2 0.6 0.1 0.3 0 0.6 0 0.3-0.1 0.6-0.1 0.2-0.2 0.3-0.1 0.2-0.2 0.3-0.1 0.2-0.2 0.3-0.1 0.2-0.2 0.3c-2.4 2.4 5.4 10.2 7.8 7.8q0.1-0.1 0.3-0.2 0.1-0.1 0.3-0.2 0.1-0.1 0.3-0.2 0.1-0.1 0.3-0.2 0.3-0.1 0.6-0.1 0.3-0.1 0.6 0 0.3 0 0.6 0.2 0.3 0.1 0.5 0.4z"/>
</svg>