<svg version="1.2" xmlns="http://www.w3.org/2000/svg" width="90" height="84"><style>.s0{fill:#2e318b}</style><g id="&lt;Group&gt;"><path id="&lt;Path&gt;" class="s0" d="M43.2 6.2H14.1c-5 0-8.1 2.9-8.2 7.9V53.5c0 1 .1 2 .3 2.9.8 3.2 3.3 5.1 6.7 5.1h13.9c1.6 0 2.7 1 2.8 2.4.1 1.6-1 2.8-2.7 2.8q-5 .1-9.9 0c-2.1 0-4.3.1-6.3-.2C5 65.6.9 60.9.7 55.1c-.1-4.1 0-8.2 0-12.3V14.7c0-4.3 1.4-8 4.7-10.9C7.6 1.8 10.1.9 13 .9h60.6c7.7 0 14.2 7 14 14.2-.1 10.1 0 20.1 0 30.2 0 1.8-1 3-2.6 3-1.4 0-2.5-1-2.6-2.4q-.1-.6-.1-1.2c0-9.8-.1-19.5.1-29.2.1-5.5-4.8-9.4-9.3-9.3-10 .1-19.9 0-29.9 0z"/><path id="&lt;Compound Path&gt;" fill-rule="evenodd" class="s0" d="M63.1 83.9C52.7 83.6 44.2 79.4 38 71c-1.5-2-1.5-4.2 0-6.2 6.7-8.9 15.7-13.3 26.9-12.7 9.7.4 17.6 5 23.4 12.9 1.4 1.9 1.4 4 0 5.9-6.3 8.5-14.7 12.7-25.2 13zm20.8-16c-10.6-14.7-32.2-13.7-41.6.1 10.2 14.2 31.5 14.1 41.6-.1zM32.3 34.2v-9.9c0-2.3.9-4 2.9-5 2-1.1 4.1-1 6 .4 4.6 3.4 9.3 6.8 13.9 10.3 3.2 2.3 3.2 6.5 0 8.8q-6.9 5.1-14 10.1c-3.2 2.3-7.7.7-8.7-3.1-.1-.5-.1-1-.1-1.6v-10zm5.3 10.4.2.2c4.8-3.5 9.6-6.9 14.5-10.5-4.9-3.6-9.7-7-14.5-10.5l-.2.2v20.6z"/><path id="&lt;Compound Path&gt;" fill-rule="evenodd" class="s0" d="M63.1 75.7c-4.3 0-7.7-3.5-7.7-7.8s3.5-7.8 7.7-7.7c4.3 0 7.7 3.5 7.8 7.7 0 4.3-3.5 7.8-7.8 7.8zm2.5-7.8c0-1.4-1.1-2.4-2.5-2.4-1.3 0-2.5 1-2.5 2.4 0 1.3 1.1 2.5 2.4 2.5 1.4.1 2.6-1.1 2.6-2.5z"/></g></svg>