<svg version="1.2" xmlns="http://www.w3.org/2000/svg" width="92" height="92"><style>.s0{fill:#2e318b;stroke:#2e318b;stroke-miterlimit:10}</style><g id="&lt;Group&gt;"><path id="&lt;Path&gt;" class="s0" d="M7.7 1.4v19.2c0 .7-.2 1.5-.6 2.1-1.8 3.3-2.8 6.7-2.8 10.5V47c0 .8.3 1.5 1.1 1.7 1 .4 2-.4 2-1.5v-7.6H10V51c0 1.1.6 1.7 1.6 1.7.9 0 1.5-.6 1.6-1.7V39.6h2.5v13.6q0 .4.1.8c0 .9.6 1.4 1.5 1.5.7 0 1.4-.5 1.5-1.3.1-.3.1-.6.1-.9V39.6h2.5V49c0 1.6.5 2.3 1.6 2.3s1.6-.7 1.6-2.3V35.3h2.5v.9c0 1.5 0 3 .1 4.5 0 .9.5 1.4 1.2 1.4s1.3-.5 1.3-1.2c-.1-2.8 0-5.6-.2-8.4-.2-2.1-1.2-3.9-2.5-5.5s-2.9-3-4.3-4.6c-.3-.3-.5-.8-.5-1.2q-.1-9.9-.1-19.8h2.6c0 5.9.1 11.8 0 17.7 0 1.2.3 2 1.2 2.8 2.4 2.3 4.5 4.8 5.6 7.9.3 1.2.6 2.5.7 3.7.1 2.5.1 5 0 7.5 0 2.2-1.8 3.7-4 3.7-.3-.1-.6-.1-1.1-.1v5.1c0 2.9-2.3 4.7-5.2 4.1-.1-.1-.2-.1-.4-.1-.2 2.3-1.3 4-3.8 4.3-2.2.2-3.6-.9-4.4-2.9-4 .3-4.9-.3-6-3.9-1.5.4-3 .3-4.1-.9-.7-.6-1-1.5-1.5-2.2V31.4c.1-.1.1-.2.1-.3.4-3.5 1.4-6.7 3.1-9.7.2-.3.2-.7.2-1.1V1.4h2.6z"/><path id="&lt;Compound Path&gt;" fill-rule="evenodd" class="s0" d="M64.2 75.3c-2.6 3.1-5 6.1-7.4 9.2-6.7-5.3-13.2-10.6-19.9-15.9.6-.7 1.1-1.3 1.6-2 6 4.7 11.9 9.5 17.9 14.3 2.4-3.1 4.8-6.1 7.3-9.1q.1-.2.2-.5c.2-1.4.5-2.8.7-4.2-3.8 2.1-7.6 4.1-11.5 6.2-4.7-8.4-9.3-16.9-13.9-25.4-3.2 3.9-6.3 7.7-9.4 11.6 2.2 1.8 4.4 3.6 6.7 5.4-.5.7-1 1.3-1.6 2-2.9-2.3-5.8-4.6-8.7-7q1.7-2.2 3.4-4.3l7.8-9.6c.3-.5.4-.8.1-1.3-1.1-1.9-2.1-3.8-3.2-5.8q4.6-2.5 9.1-4.9c2.3-1.3 4.5-2.5 6.8-3.8.5-.2.7-.5.7-1.1v-8h5.9v2.5h-3.2v34h16.1v-4.5c-.3-4.2 4.1-6.7 7.3-5.1 0 .1.1 0 .2 0V23.6h-1c-5.2 0-10.5 0-15.7.1-.9 0-1.2-.3-1.1-1.2.1-.4 0-.9 0-1.4h20.5v1q0 8.6-.1 17.2c0 .6.2 1 .8 1.3.8.5 1.7 1.1 2.6 1.6 1 .5 1.5 1.3 1.8 2.4 1.4 5.4 2.9 10.9 4.3 16.3.2.5.1 1.2 0 1.7-1.7 4.5-3.4 9-5.1 13.6-.2.5-.3 1-.3 1.5v11.5h-2.5q-.1-.5-.1-.9v-11c0-.6.1-1.1.3-1.6 1.7-4.4 3.4-8.9 5-13.3.2-.5.2-1 .1-1.5q-2.1-7.7-4.2-15.5c-.1-.4-.5-.8-.8-1.1-.5-.4-1.1-.7-1.8-1.1v19h-2.6v-9.6c0-1.3-1-2.3-2.2-2.5-1.3-.1-2.4.7-2.8 1.9-.1.3-.1.6-.1 1q0 4.2.1 8.4c0 .5-.2.8-.6 1.1-4.9 3.2-6.7 9.1-4.2 14.3 1.1 2.3 1.7 4.6 1.5 7.2-.1 1.7 0 3.4 0 5.2h-2.6v-4.7c.2-2.4-.1-4.7-1.3-6.8-.4-.7-.6-1.5-.9-2.4zm-10.1-5.5c.3-.1.6-.3.9-.4l12-6.6c.9-.5 1.7-1.3 2.5-2 .1-.1.1-.3.2-.6H50.9V32.8c-4.5 2.4-8.7 4.8-13.1 7.1 5.4 10 10.8 20 16.3 29.9z"/><path id="&lt;Compound Path&gt;" fill-rule="evenodd" class="s0" d="M71.5 46.3c-1.9-1.1-3.7-2-5.5-2.9-.4-.2-.9-.2-1.2 0-1.5.8-3.1 1.6-4.6 2.4-.3.1-.6.3-1 .5.4-2.2.8-4.2 1.1-6.2 0-.4-.2-.9-.4-1.1-1.4-1.5-2.8-3-4.1-4.5 1.4-.2 3.1-.5 4.7-.6 1.4-.1 2.1-.6 2.6-1.9.6-1.5 1.5-3 2.3-4.7.8 1.6 1.6 3 2.2 4.5.5 1.4 1.3 2 2.8 2.1 1.6.1 3.2.4 4.9.7-.2.2-.3.4-.5.5-1.3 1.3-2.7 2.6-4 3.9-.2.2-.3.7-.3 1 .3 2.1.7 4.1 1 6.3zM61 36.4c.6.6 1.2 1.1 1.7 1.7.2.3.3.7.3 1 0 .8-.2 1.6-.3 2.5.8-.4 1.5-.8 2.2-1.2.3-.1.7-.1 1 0 .7.3 1.4.7 2.2 1.2-.1-.9-.3-1.6-.4-2.4 0-.4.2-.8.4-1.1.5-.6 1.1-1 1.7-1.5q-.1-.1-.2-.3l-2.1-.3c-.5 0-.9-.2-1.1-.7-.3-.7-.6-1.3-1-2.1-.4.7-.7 1.3-1 1.9-.2.6-.6.9-1.3 1-.6 0-1.3.2-2.1.3z"/><path id="&lt;Path&gt;" class="s0" d="M73.9 76h2.4v2.5h-2.4V76zM73.9 83.6v-2.4h2.4v2.4h-2.4z"/></g></svg>