<svg version="1.2" xmlns="http://www.w3.org/2000/svg" width="76" height="80"><style>.s0{fill:#2e318b}</style><g id="&lt;Group&gt;"><path id="&lt;Compound Path&gt;" fill-rule="evenodd" class="s0" d="m49.5 41.5 6 3c1.3.7 2.1 1.7 2 3.3-.2 2.8-3 4.4-5.4 2.9-3-1.8-6.2-3.1-9.6-3.8-15.7-3.3-31.3 6.8-34.6 22.5-.5 2.1-.6 4.3-.7 6.4-.2 2.5-2.1 4-4.5 3.5C1 78.9 0 77.6 0 75.7.1 68 2.3 61 6.7 54.7q6.1-8.5 15.7-12.6c.2-.1.3-.1.6-.3-6.7-5.1-10.1-11.8-9.5-20.3.5-6.2 3.3-11.3 8.1-15.4 9.3-7.8 23.2-6.7 31.3 2.4 8.4 9.5 7.5 24.7-3.4 33zM20.6 23.4c-.1 8.5 6.7 15.4 15.3 15.4 8.5.1 15.5-6.7 15.5-15.2C51.5 15 44.7 8.1 36.1 8c-8.6 0-15.5 6.8-15.5 15.4z"/><path id="&lt;Path&gt;" class="s0" d="M64.9 68.5v3.6c0 1.2.1 2.3 0 3.5-.1 2.1-1.6 3.5-3.6 3.4-2.1 0-3.5-1.4-3.5-3.5v-7h-.9q-3.2 0-6.4-.1c-2 0-3.3-1.2-3.5-3.2-.2-1.9 1-3.5 3-3.8 1-.1 2.1-.1 3.1-.1h4.7v-6.9c0-2.2 1.5-3.7 3.5-3.8 2.1 0 3.6 1.6 3.6 3.8v6.9h7c2.6.1 4.2 2.1 3.5 4.6-.4 1.6-1.6 2.5-3.4 2.5q-3.1.1-6.2.1h-.9z"/></g></svg>